<?xml version="1.0" encoding="UTF-8"?>
<svg width="20px" height="20px" viewBox="0 0 20 20" version="1.1" xmlns="http://www.w3.org/2000/svg" xmlns:xlink="http://www.w3.org/1999/xlink">
    <!-- Generator: Sketch 50.2 (55047) - http://www.bohemiancoding.com/sketch -->
    <title>e-mail-icon</title>
    <desc>Created with Sketch.</desc>
    <defs></defs>
    <g id="Page-1" stroke="none" stroke-width="1" fill="none" fill-rule="evenodd">
        <g id="Home" transform="translate(-753.000000, -3423.000000)">
            <g id="footer" transform="translate(0.000000, 3317.000000)">
                <g id="Group-3">
                    <rect id="Rectangle-8" fill="#F5F5F5" x="0" y="0" width="1440" height="392"></rect>
                    <g id="envelope" transform="translate(753.000000, 108.000000)" fill="#E21C21" fill-rule="nonzero">
                        <path d="M1.91960534,4.93535622 C2.17260264,5.11726207 2.93523003,5.65752284 4.20752659,6.55585972 C5.47986224,7.4541966 6.4545586,8.14589289 7.13165476,8.63098843 C7.20604504,8.68416214 7.36409018,8.79975022 7.60586835,8.977912 C7.84768561,9.15619328 8.04861364,9.30026016 8.20849605,9.41015248 C8.36849574,9.52000497 8.56191828,9.64324051 8.78895912,9.77965994 C9.01592179,9.91595988 9.22986713,10.0184836 9.43075606,10.0863547 C9.63168408,10.1547835 9.81767932,10.1886792 9.98878087,10.1886792 L10,10.1886792 L10.0112582,10.1886792 C10.1823598,10.1886792 10.3684332,10.1547437 10.5693612,10.0863547 C10.770172,10.0184836 10.9843128,9.91584039 11.21108,9.77965994 C11.4379645,9.64308119 11.631387,9.51996514 11.7913867,9.41015248 C11.9513864,9.30026016 12.152158,9.15619328 12.3940535,8.977912 C12.6357926,8.7995909 12.7940331,8.68416214 12.8684234,8.63098843 C13.5528296,8.14589289 15.2940625,6.913896 18.0915747,4.93511724 C18.6347058,4.54864199 19.0884748,4.08230661 19.4529989,3.53642974 C19.8177966,2.99079185 20,2.41838788 20,1.81953646 C20,1.31910618 19.8231912,0.890729254 19.4697298,0.534445519 C19.1163076,0.178082122 18.6977206,0 18.2142424,0 L1.78564029,0 C1.21276088,0 0.771891968,0.197081266 0.463111726,0.591243798 C0.154370575,0.985485991 0,1.47826882 0,2.06955244 C0,2.54715985 0.204680763,3.06471724 0.613846833,3.62190597 C1.02297381,4.17913453 1.45836998,4.61699111 1.91960534,4.93535622 Z" id="Shape"></path>
                        <path d="M18.8837571,6.24655126 C16.4435419,7.88558046 14.5906295,9.15937665 13.3259191,10.0676683 C12.9018211,10.3776605 12.5577814,10.6196492 12.2935654,10.7930525 C12.0293495,10.9665721 11.6779607,11.143777 11.2388908,11.3245896 C10.7999773,11.5056738 10.3909293,11.5959444 10.011395,11.5959444 L10.0000195,11.5959444 L9.98880043,11.5959444 C9.60934431,11.5959444 9.20006176,11.5056738 8.76114826,11.3245896 C8.32223475,11.143777 7.9706114,10.9665721 7.70647366,10.7930525 C7.4424141,10.6196492 7.09825713,10.3776605 6.6741982,10.0676683 C5.66967732,9.33673674 3.82075223,8.06286297 1.12734473,6.24655126 C0.703129428,5.96615783 0.327386944,5.64476054 0,5.28301887 L0,14.0767358 C0,14.5643597 0.174775764,14.9813421 0.524522748,15.3283814 C0.87419155,15.675537 1.29465411,15.8490566 1.78575407,15.8490566 L18.2143632,15.8490566 C18.7053459,15.8490566 19.1257694,15.675537 19.4754773,15.3283814 C19.8253024,14.9812257 20,14.5643985 20,14.0767358 L20,5.28301887 C19.6800013,5.63727355 19.3080897,5.95867084 18.8837571,6.24655126 Z" id="Shape"></path>
                    </g>
                </g>
            </g>
        </g>
    </g>
</svg>