<?xml version="1.0" encoding="UTF-8"?>
<svg width="50px" height="50px" viewBox="0 0 50 50" version="1.1" xmlns="http://www.w3.org/2000/svg" xmlns:xlink="http://www.w3.org/1999/xlink">
    <!-- Generator: Sketch 50.2 (55047) - http://www.bohemiancoding.com/sketch -->
    <title>upcoming-events-icon</title>
    <desc>Created with Sketch.</desc>
    <defs></defs>
    <g id="Page-1" stroke="none" stroke-width="1" fill="none" fill-rule="evenodd">
        <g id="Home" transform="translate(-120.000000, -705.000000)">
            <g id="event-date-and-time-symbol" transform="translate(120.000000, 705.000000)">
                <rect id="upcoming-events-icon" x="0" y="0" width="50" height="50"></rect>
                <path d="M39.3617021,26.8147336 C33.4853366,26.8147336 28.7205071,31.6252437 28.7205071,37.5545809 C28.7205071,43.4823749 33.4853366,48.289961 39.3617021,48.289961 C45.2351705,48.289961 50,43.4824561 50,37.5545809 C50,31.6251624 45.2351705,26.8147336 39.3617021,26.8147336 Z M40.0444614,45.4916342 L40.0444614,44.5644899 C40.0444614,44.1809617 39.7380084,43.8710201 39.3617021,43.8710201 C38.9816939,43.8710201 38.6759652,44.1817739 38.6759652,44.5644899 L38.6759652,45.4916342 C34.8661457,45.1610624 31.8227807,42.0887752 31.4951624,38.2443145 L32.4166944,38.2443145 C32.7930811,38.2443145 33.1009022,37.9349415 33.1009022,37.5552307 C33.1009022,37.1687784 32.7930811,36.8631417 32.4166944,36.8631417 L31.4951624,36.8631417 C31.8227002,33.017219 34.8667895,29.947937 38.6759652,29.615822 L38.6759652,30.5444282 C38.6759652,30.9264945 38.9824987,31.2365172 39.3617021,31.2365172 C39.7380889,31.2365172 40.0444614,30.9257635 40.0444614,30.5444282 L40.0444614,29.615822 C43.8557295,29.947937 46.899175,33.017219 47.2252642,36.8631417 L46.3037323,36.8631417 C45.9252531,36.8631417 45.6195244,37.1694282 45.6195244,37.5552307 C45.6195244,37.935835 45.9259774,38.2443145 46.3037323,38.2443145 L47.2252642,38.2443145 C46.8998993,42.088694 43.8557295,45.1602502 40.0444614,45.4916342 Z" id="Shape" fill="#E21C21" fill-rule="nonzero"></path>
                <path d="M43.3257943,36.5164068 L40.8575116,36.5164068 C40.5284448,36.0374431 39.981851,35.7193795 39.3616217,35.7193795 C39.3522059,35.7193795 39.3419855,35.7223034 39.3310407,35.7223034 L37.0818944,32.5265595 C36.7543567,32.0614847 36.1123183,31.9535413 35.6500635,32.2826511 C35.1892573,32.6147661 35.0786026,33.2641326 35.4083937,33.7306693 L37.6590691,36.927794 C37.5899401,37.1239441 37.5455978,37.3326023 37.5455978,37.5552307 C37.5455978,38.5675763 38.3571993,39.3866959 39.3616217,39.3866959 C39.981851,39.3866959 40.5313419,39.0715562 40.8575116,38.5910494 L43.3257943,38.5910494 C43.8921047,38.5910494 44.3529109,38.1290611 44.3529109,37.5559617 C44.3529109,36.9800195 43.8921852,36.5164068 43.3257943,36.5164068 Z" id="Shape" fill="#E21C21" fill-rule="nonzero"></path>
                <path d="M10.9888035,16.180718 C12.8507793,16.180718 14.3575335,14.6585445 14.3575335,12.781514 L14.3575335,5.40562053 C14.3575335,3.527859 12.8507793,2.0064165 10.9888035,2.0064165 C9.12827634,2.0064165 7.62224643,3.527859 7.62224643,5.40562053 L7.62224643,12.782245 C7.62224643,14.6585445 9.12819587,16.180718 10.9888035,16.180718 Z" id="Shape" fill="#E21C21" fill-rule="nonzero"></path>
                <path d="M31.6174861,16.180718 C33.4795423,16.180718 34.9862161,14.6585445 34.9862161,12.781514 L34.9862161,5.40562053 C34.9862161,3.527859 33.4794619,2.0064165 31.6174861,2.0064165 C29.7584075,2.0064165 28.2510095,3.527859 28.2510095,5.40562053 L28.2510095,12.782245 C28.2502047,14.6585445 29.758488,16.180718 31.6174861,16.180718 Z" id="Shape" fill="#E21C21" fill-rule="nonzero"></path>
                <path d="M15.5527646,25.6186647 C15.5527646,24.6482294 14.7753654,23.862167 13.8115835,23.862167 L10.5840892,23.862167 C9.62256061,23.862167 8.84153997,24.6482294 8.84153997,25.6186647 L8.84153997,28.8746751 C8.84153997,29.8465724 9.62256061,30.634909 10.5840892,30.634909 L13.8115835,30.634909 C14.7745607,30.634909 15.5527646,29.8465724 15.5527646,28.8746751 L15.5527646,25.6186647 Z" id="Shape" fill="#E21C21" fill-rule="nonzero"></path>
                <path d="M24.660246,25.6208577 C24.660246,24.6504224 23.8806739,23.865091 22.9213182,23.865091 L19.6922948,23.865091 C18.7307662,23.865091 17.9525622,24.6504224 17.9525622,25.6208577 L17.9525622,28.8775991 C17.9525622,29.8465724 18.7306857,30.634909 19.6922948,30.634909 L22.9213182,30.634909 C23.8813982,30.634909 24.660246,29.8465724 24.660246,28.8775991 L24.660246,25.6208577 Z" id="Shape" fill="#E21C21" fill-rule="nonzero"></path>
                <path d="M28.798408,23.862167 C27.8353504,23.862167 27.0557783,24.6482294 27.0557783,25.6186647 L27.0557783,28.8746751 C27.0557783,29.7539799 27.7050596,30.4475309 28.5378263,30.5790286 C29.8144993,28.5719623 31.6226366,26.9468811 33.763462,25.8963613 L33.763462,25.6186647 C33.763462,24.6482294 32.9853385,23.862167 32.0222809,23.862167 L28.798408,23.862167 Z" id="Shape" fill="#E21C21" fill-rule="nonzero"></path>
                <path d="M10.5848134,32.6881904 C9.62328489,32.6881904 8.84218377,33.4735218 8.84218377,34.4439571 L8.84218377,37.7013483 C8.84218377,38.6717836 9.62328489,39.457115 10.5848134,39.457115 L13.8138369,39.457115 C14.7753654,39.457115 15.5527646,38.6717836 15.5527646,37.7013483 L15.5527646,34.4439571 C15.5527646,33.4735218 14.7753654,32.6881904 13.8138369,32.6881904 L10.5848134,32.6881904 Z" id="Shape" fill="#E21C21" fill-rule="nonzero"></path>
                <path d="M22.9176163,32.6896524 L19.6915705,32.6896524 C18.7300419,32.6896524 17.9519184,33.476527 17.9519184,34.4469623 L17.9519184,37.7014295 C17.9519184,38.6718648 18.7300419,39.4571962 19.6915705,39.4571962 L22.9176163,39.4571962 C23.8776963,39.4571962 24.6573488,38.6718648 24.6573488,37.7014295 L24.6573488,34.4469623 C24.6573488,33.4764457 23.8776963,32.6896524 22.9176163,32.6896524 Z" id="Shape" fill="#E21C21" fill-rule="nonzero"></path>
                <path d="M27.6227325,42.8211501 L11.2486609,42.8211501 C8.43022657,42.8211501 6.13657697,40.5063353 6.13657697,37.6647173 L6.13657697,20.4041585 L36.4726903,20.4041585 L36.4726903,24.9207277 C37.4022698,24.7047596 38.3653274,24.5783788 39.3617021,24.5783788 C40.2162779,24.5783788 41.0504128,24.6673164 41.8591172,24.8296784 L41.8591172,8.59551657 L37.0069712,8.59551657 L37.0069712,12.781514 C37.0069712,15.7802956 34.5909979,18.2193795 31.6174861,18.2193795 C28.6455034,18.2193795 26.2296106,15.7803769 26.2296106,12.781514 L26.2296106,8.59551657 L16.3781276,8.59551657 L16.3781276,12.781514 C16.3781276,15.7802956 13.9607058,18.2193795 10.988723,18.2193795 C8.01810841,18.2193795 5.60076703,15.7803769 5.60076703,12.781514 L5.60076703,8.59551657 L0.748620961,8.59551657 L0.748620961,37.6639864 C0.748620961,43.5147011 5.44939147,48.2612898 11.2486609,48.2612898 L31.3584335,48.2612898 C31.5972061,48.2612898 31.8330011,48.2414717 32.067428,48.2259584 C30.1355185,46.8785737 28.5923087,45.0088532 27.6227325,42.8211501 Z" id="Shape" fill="#E21C21" fill-rule="nonzero"></path>
            </g>
        </g>
    </g>
</svg>