<?xml version="1.0" encoding="UTF-8"?>
<svg width="20px" height="20px" viewBox="0 0 20 20" version="1.1" xmlns="http://www.w3.org/2000/svg" xmlns:xlink="http://www.w3.org/1999/xlink">
    <!-- Generator: Sketch 50.2 (55047) - http://www.bohemiancoding.com/sketch -->
    <title>location-icon</title>
    <desc>Created with Sketch.</desc>
    <defs></defs>
    <g id="Page-1" stroke="none" stroke-width="1" fill="none" fill-rule="evenodd">
        <g id="Profile---Upcoming-Events-(Event-Details)" transform="translate(-580.000000, -306.000000)">
            <g id="placeholder-filled-point" transform="translate(580.000000, 306.000000)">
                <rect id="Rectangle-22" x="0" y="0" width="20" height="20"></rect>
                <path d="M10.3915068,0 C6.3160274,0 3,3.29346939 3,7.34163265 C3,8.39755102 3.21760274,9.40571429 3.64643836,10.3383673 C5.49452055,14.354898 9.03780822,18.5955102 10.08,19.7993878 C10.1580822,19.8893878 10.2719178,19.9412245 10.3917123,19.9412245 C10.5115068,19.9412245 10.6253425,19.8893878 10.7034247,19.7993878 C11.7452055,18.5957143 15.2884932,14.3553061 17.1371918,10.3383673 C17.5662329,9.40571429 17.7836301,8.39755102 17.7836301,7.34163265 C17.7832192,3.29346939 14.4671918,0 10.3915068,0 Z M10.3915068,11.154898 C8.27445205,11.154898 6.55191781,9.44408163 6.55191781,7.34142857 C6.55191781,5.23857143 8.27445205,3.5277551 10.3915068,3.5277551 C12.5085616,3.5277551 14.2310959,5.23857143 14.2310959,7.34142857 C14.2313014,9.44408163 12.5087671,11.154898 10.3915068,11.154898 Z" id="Shape" fill="#000000" fill-rule="nonzero"></path>
            </g>
        </g>
    </g>
</svg>