<?xml version="1.0" encoding="UTF-8"?>
<svg width="20px" height="20px" viewBox="0 0 20 20" version="1.1" xmlns="http://www.w3.org/2000/svg" xmlns:xlink="http://www.w3.org/1999/xlink">
    <!-- Generator: Sketch 50.2 (55047) - http://www.bohemiancoding.com/sketch -->
    <title>money</title>
    <desc>Created with Sketch.</desc>
    <defs></defs>
    <g id="Page-1" stroke="none" stroke-width="1" fill="none" fill-rule="evenodd">
        <g id="Profile---Upcoming-Events-(Event-Details)" transform="translate(-783.000000, -306.000000)" fill="#000000" fill-rule="nonzero">
            <g id="money" transform="translate(783.000000, 306.000000)">
                <path d="M14,10 C11.243,10 9,12.243 9,15 C9,17.757 11.243,20 14,20 C16.757,20 19,17.757 19,15 C19,12.243 16.757,10 14,10 Z M15.03396,14.7122 C15.49216,14.86492 15.8,15.29208 15.8,15.77504 C15.8,16.57708 15.28148,17.27 14.56,17.50996 L14.56,18 L13.36,18 L13.36,17.48128 C13.1446,17.39944 12.94472,17.27688 12.77368,17.11768 C12.40912,16.77824 12.2,16.29796 12.2,15.8 L13.4,15.8 C13.4,15.96844 13.46796,16.12444 13.59136,16.23932 C13.71456,16.35404 13.87576,16.41056 14.04552,16.39836 C14.33832,16.3774 14.5714,16.13336 14.59756,15.83164 L12.96604,15.2878 C12.50784,15.13508 12.2,14.70792 12.2,14.22496 C12.2,13.45552 12.68452,12.78576 13.36,12.52096 L13.36,12 L14.56,12 L14.56,12.48856 C14.81768,12.57256 15.05476,12.7148 15.25516,12.9098 C15.60652,13.25164 15.8,13.70984 15.8,14.19996 L14.6,14.19996 C14.6,14.0366 14.53548,13.88384 14.41832,13.76988 C14.30128,13.65596 14.14664,13.59564 13.98268,13.6002 C13.6796,13.60852 13.42984,13.85832 13.40244,14.16836 L15.03396,14.7122 Z" id="Shape"></path>
                <path d="M13.6146613,0.862734375 C12.2363548,0.30640625 10.4199516,0 8.5,0 C6.58004839,0 4.76364516,0.30640625 3.38533871,0.862734375 C1.8471129,1.48363281 1,2.35640625 1,3.3203125 L1,16.6796875 C1,17.6435938 1.8471129,18.5163672 3.38533871,19.1372656 C4.76364516,19.6935938 6.58004839,20 8.5,20 C9.09995161,20 9.69085484,19.9695313 10.2629839,19.9109766 C9.75748387,19.5957812 9.30303226,19.2298438 8.91143548,18.8225 C8.77498387,18.8259766 8.63790323,18.828125 8.5,18.828125 C6.80103226,18.828125 5.21514516,18.5656641 4.0345,18.0891016 C3.02853226,17.6830859 2.4516129,17.1693359 2.4516129,16.6796875 L2.4516129,16.0121484 C2.72659677,16.1760937 3.03816129,16.3291406 3.38533871,16.4692969 C4.60759677,16.9626562 6.1746129,17.2589062 7.85258065,17.3198047 C7.66759677,16.9387109 7.52945161,16.5388281 7.44317742,16.1249219 C6.15051613,16.0392578 4.96614516,15.7971875 4.03454839,15.4211719 C3.02853226,15.0150781 2.4516129,14.5013672 2.4516129,14.0117188 L2.4516129,13.3441797 C2.72659677,13.508125 3.03816129,13.6612109 3.38533871,13.8013281 C4.48793548,14.2464062 5.87127419,14.5309375 7.3633871,14.6271875 C7.4031129,14.22875 7.49059677,13.8410547 7.62158065,13.4679297 C6.25948387,13.3934375 5.00887097,13.1464844 4.03454839,12.7531641 C3.02853226,12.3471094 2.4516129,11.8333984 2.4516129,11.34375 L2.4516129,10.6762109 C2.72659677,10.8401562 3.03816129,10.9932031 3.38533871,11.1333594 C4.74317742,11.6814453 6.52653226,11.9863281 8.4148871,11.9952344 C8.74677419,11.5518359 9.14727419,11.1455859 9.60409677,10.7857031 C9.24346774,10.8107422 8.87475806,10.8242187 8.5,10.8242187 C6.80103226,10.8242187 5.21514516,10.5617578 4.0345,10.0851953 C3.02853226,9.67914063 2.4516129,9.16542969 2.4516129,8.67578125 L2.4516129,8.00824219 C2.72659677,8.1721875 3.03816129,8.32527344 3.38533871,8.46539062 C4.76364516,9.02171875 6.58004839,9.328125 8.5,9.328125 C10.4199516,9.328125 12.2363548,9.02171875 13.6146613,8.46539062 C13.9618387,8.32527344 14.2734032,8.1721875 14.5483871,8.00824219 L14.5483871,8.67578125 C14.5483871,8.806875 14.506629,8.93972656 14.4267419,9.07175781 C14.5631452,9.06574219 14.7004677,9.0625 14.8387097,9.0625 C15.2335968,9.0625 15.6214194,9.08746094 16,9.13515625 L16,3.3203125 C16,2.35640625 15.1528871,1.48363281 13.6146613,0.862734375 Z M14.5483871,6.0078125 C14.5483871,6.49746094 13.9714677,7.01121094 12.9655,7.41722656 C11.7848548,7.89378906 10.1989677,8.15625 8.5,8.15625 C6.80103226,8.15625 5.21514516,7.89378906 4.0345,7.41722656 C3.02853226,7.01117188 2.4516129,6.49746094 2.4516129,6.0078125 L2.4516129,5.34027344 C2.72659677,5.50421875 3.03816129,5.65730469 3.38533871,5.79742188 C4.76364516,6.35375 6.58004839,6.66015625 8.5,6.66015625 C10.4199516,6.66015625 12.2363548,6.35375 13.6146613,5.79742187 C13.9618387,5.65730469 14.2734032,5.50421875 14.5483871,5.34027344 L14.5483871,6.0078125 Z" id="Shape"></path>
            </g>
        </g>
    </g>
</svg>