<?xml version="1.0" encoding="UTF-8"?>
<svg width="50px" height="50px" viewBox="0 0 50 50" version="1.1" xmlns="http://www.w3.org/2000/svg" xmlns:xlink="http://www.w3.org/1999/xlink">
    <!-- Generator: Sketch 50.2 (55047) - http://www.bohemiancoding.com/sketch -->
    <title>payment-icon</title>
    <desc>Created with Sketch.</desc>
    <defs></defs>
    <g id="Page-1" stroke="none" stroke-width="1" fill="none" fill-rule="evenodd">
        <g id="Quick-checkout---Payment-" transform="translate(-120.000000, -109.000000)" fill="#E21C21" fill-rule="nonzero">
            <g id="credit-card" transform="translate(120.000000, 109.000000)">
                <path d="M38.6437628,12.8768916 C39.3697342,12.8768916 39.5742331,11.8952965 38.9198364,11.598773 L13.3676892,0.269529652 C11.8134969,-0.425766871 9.98323108,0.269529652 9.28793456,1.83394683 L0.341104294,21.8952965 C-0.354192229,23.4494888 0.341104294,25.2797546 1.90552147,25.9750511 L7.05889571,28.20409 C7.70306748,28.4903885 8.4392638,28.0200409 8.4392638,27.3145194 L8.4392638,18.797137 C8.4392638,15.5353783 11.0875256,12.8871166 14.3492843,12.8871166 L38.6437628,12.8871166 L38.6437628,12.8768916 Z" id="Shape"></path>
                <path d="M45.3308793,15.6580777 L14.3390593,15.6580777 C12.6110429,15.6580777 11.2102249,17.0588957 11.2102249,18.7869121 L11.2102249,40.6785276 C11.2102249,42.406544 12.6110429,43.807362 14.3390593,43.807362 L18.5006135,43.807362 C18.398364,43.193865 18.3472393,42.5701431 18.3472393,41.9361963 C18.3472393,41.2204499 18.4188139,40.5251534 18.5415133,39.8400818 L15.1877301,39.8400818 L15.1877301,29.3595092 L44.4924335,29.3595092 L44.4924335,39.8298569 L41.1284254,39.8298569 C41.2511247,40.5149284 41.3226994,41.2102249 41.3226994,41.9259714 C41.3226994,42.5599182 41.2715746,43.1836401 41.1693252,43.797137 L45.3308793,43.797137 C47.0588957,43.797137 48.4597137,42.396319 48.4597137,40.6683027 L48.4597137,18.7869121 C48.4597137,17.0588957 47.0588957,15.6580777 45.3308793,15.6580777 Z M44.4924335,22.9075665 L15.1877301,22.9075665 L15.1877301,19.6253579 L44.4924335,19.6253579 L44.4924335,22.9075665 Z" id="Shape"></path>
                <path d="M29.8400818,33.8891616 C25.402454,33.8891616 21.803272,37.4883436 21.803272,41.9259714 C21.803272,46.3635992 25.402454,49.9627812 29.8400818,49.9627812 C34.2777096,49.9627812 37.8768916,46.3635992 37.8768916,41.9259714 C37.8768916,37.4883436 34.2777096,33.8891616 29.8400818,33.8891616 Z M32.1509202,45.0957055 C31.803272,45.5251534 31.3431493,45.8114519 30.8114519,45.9546012 C30.5762781,46.0159509 30.4740286,46.1386503 30.4842536,46.3840491 C30.4944785,46.6192229 30.4842536,46.8543967 30.4842536,47.0997955 C30.4842536,47.3145194 30.3717791,47.4269939 30.1672802,47.4269939 C29.9116564,47.4372188 29.6560327,47.4372188 29.400409,47.4269939 C29.1754601,47.4269939 29.0732106,47.2940695 29.0732106,47.0793456 C29.0732106,46.9055215 29.0732106,46.7316973 29.0732106,46.5578732 C29.0732106,46.1795501 29.0527607,46.1591002 28.6846626,46.0977505 C28.2143149,46.0261759 27.7541922,45.9137014 27.3247444,45.7092025 C26.9873211,45.5456033 26.9464213,45.4638037 27.0486708,45.1059305 C27.1202454,44.8400818 27.19182,44.5742331 27.2736196,44.3186094 C27.3656442,44.0118609 27.4474438,43.9811861 27.7337423,44.1243354 C28.2143149,44.3697342 28.7153374,44.5128834 29.2470348,44.5742331 C29.5844581,44.6151329 29.9218814,44.5844581 30.2388548,44.4413088 C30.8319018,44.1856851 30.9239264,43.5006135 30.4229039,43.0916155 C30.2490798,42.9484663 30.0650307,42.8462168 29.8605317,42.7644172 C29.3390593,42.5394683 28.797137,42.3656442 28.3165644,42.0691207 C27.5190184,41.598773 27.0179959,40.9443763 27.0793456,39.9730061 C27.1406953,38.8789366 27.7644172,38.20409 28.7664622,37.8359918 C29.1754601,37.6826176 29.1856851,37.6928425 29.1856851,37.2633947 C29.1856851,37.1202454 29.1856851,36.9668712 29.1856851,36.8237219 C29.19591,36.4965235 29.2470348,36.4453988 29.5742331,36.4351738 C29.6764826,36.4351738 29.7787321,36.4351738 29.8707566,36.4351738 C30.5660532,36.4351738 30.5660532,36.4351738 30.5660532,37.1304703 C30.5660532,37.6212679 30.5660532,37.6212679 31.0568507,37.6928425 C31.4249489,37.7541922 31.7828221,37.8564417 32.1304703,38.009816 C32.3247444,38.0916155 32.396319,38.2245399 32.3349693,38.4290389 C32.2531697,38.7255624 32.1713701,39.0323108 32.0691207,39.3186094 C31.9770961,39.594683 31.8850716,39.6355828 31.6192229,39.5128834 C31.0773006,39.2470348 30.5149284,39.1447853 29.9218814,39.1754601 C29.7685072,39.1856851 29.6151329,39.206135 29.4719836,39.2674847 C28.9607362,39.4924335 28.8687117,40.0650307 29.3083845,40.4126789 C29.5333333,40.5865031 29.7787321,40.7194274 30.0445808,40.8319018 C30.5047035,41.0159509 30.9546012,41.2 31.394274,41.4453988 C32.7439673,42.19182 33.1222904,43.9198364 32.1509202,45.0957055 Z" id="Shape"></path>
            </g>
        </g>
    </g>
</svg>