<?xml version="1.0" encoding="UTF-8"?>
<svg width="50px" height="50px" viewBox="0 0 50 50" version="1.1" xmlns="http://www.w3.org/2000/svg" xmlns:xlink="http://www.w3.org/1999/xlink">
    <!-- Generator: Sketch 50.2 (55047) - http://www.bohemiancoding.com/sketch -->
    <title>recent-results-icon</title>
    <desc>Created with Sketch.</desc>
    <defs></defs>
    <g id="Page-1" stroke="none" stroke-width="1" fill="none" fill-rule="evenodd">
        <g id="Home" transform="translate(-120.000000, -2288.000000)">
            <g id="Group-4" transform="translate(120.000000, 2288.000000)">
                <rect id="recent-results-icon" x="0" y="0" width="50" height="50"></rect>
                <g id="Group-2" transform="translate(7.000000, 0.000000)" fill="#000000" fill-rule="nonzero">
                    <path d="M27.0421875,9.453125 L27.0421875,8.1125 C27.0421875,6.984375 26.1296875,6.071875 25,6.071875 L21.9890625,6.071875 C22.275,5.4890625 22.4375,4.859375 22.4375,4.184375 C22.4375,1.88125 20.565625,0 18.2625,0 C15.9609375,0 14.0875,1.884375 14.0875,4.1890625 C14.0875,4.865625 14.25,5.490625 14.5359375,6.0734375 L10.5015625,6.0734375 C9.3734375,6.0734375 8.4609375,6.9859375 8.4609375,8.1140625 L8.4609375,9.453125 L3.3203125,9.453125 C1.49375,9.453125 0.0109375,10.934375 0.0109375,12.7609375 L0.0109375,46.690625 C0.0109375,48.51875 1.4921875,50 3.3203125,50 L32.1828125,50 C34.0109375,50 35.490625,48.51875 35.490625,46.690625 L35.490625,12.7609375 C35.490625,10.934375 34.0078125,9.453125 32.1828125,9.453125 L27.0421875,9.453125 Z M15.775,4.1859375 C15.775,2.8125 16.8921875,1.6875 18.2625,1.6875 C19.6328125,1.6875 20.75,2.8140625 20.75,4.1890625 C20.75,4.9390625 20.4171875,5.61875 19.8953125,6.0734375 L16.63125,6.0734375 C16.10625,5.61875 15.775,4.9359375 15.775,4.1859375 Z M32.1109375,44.903125 C32.1109375,45.85 31.3421875,46.621875 30.39375,46.621875 L5.1078125,46.621875 C4.159375,46.621875 3.390625,45.853125 3.390625,44.903125 L3.390625,14.5484375 C3.390625,13.6 4.159375,12.83125 5.1078125,12.83125 L8.459375,12.83125 C8.459375,13.7640625 9.215625,14.5203125 10.1484375,14.5203125 L25.3515625,14.5203125 C26.2859375,14.5203125 27.0421875,13.7640625 27.0421875,12.83125 L30.3953125,12.83125 C31.3421875,12.83125 32.1125,13.5984375 32.1125,14.5484375 L32.1125,44.903125 L32.1109375,44.903125 Z" id="Shape"></path>
                    <path d="M7.5,19.9994537 L7.5,39.9994537 L28.5,39.9994537 L28.5,19.9994537 L7.5,19.9994537 Z M14.0625,38.6661204 L8.8125,38.6661204 L8.8125,35.9994537 L14.0625,35.9994537 L14.0625,38.6661204 Z M14.0625,34.6661204 L8.8125,34.6661204 L8.8125,31.9994537 L14.0625,31.9994537 L14.0625,34.6661204 Z M14.0625,30.6661204 L8.8125,30.6661204 L8.8125,27.9994537 L14.0625,27.9994537 L14.0625,30.6661204 Z M14.0625,26.6661204 L8.8125,26.6661204 L8.8125,23.9994537 L14.0625,23.9994537 L14.0625,26.6661204 Z M20.625,38.6661204 L15.375,38.6661204 L15.375,35.9994537 L20.625,35.9994537 L20.625,38.6661204 Z M20.625,34.6661204 L15.375,34.6661204 L15.375,31.9994537 L20.625,31.9994537 L20.625,34.6661204 Z M20.625,30.6661204 L15.375,30.6661204 L15.375,27.9994537 L20.625,27.9994537 L20.625,30.6661204 Z M20.625,26.6661204 L15.375,26.6661204 L15.375,23.9994537 L20.625,23.9994537 L20.625,26.6661204 Z M27.1875,38.6661204 L21.9375,38.6661204 L21.9375,35.9994537 L27.1875,35.9994537 L27.1875,38.6661204 Z M27.1875,34.6661204 L21.9375,34.6661204 L21.9375,31.9994537 L27.1875,31.9994537 L27.1875,34.6661204 Z M27.1875,30.6661204 L21.9375,30.6661204 L21.9375,27.9994537 L27.1875,27.9994537 L27.1875,30.6661204 Z M27.1875,26.6661204 L21.9375,26.6661204 L21.9375,23.9994537 L27.1875,23.9994537 L27.1875,26.6661204 Z" id="Shape"></path>
                </g>
            </g>
        </g>
    </g>
</svg>