<?xml version="1.0" encoding="UTF-8"?>
<svg width="50px" height="50px" viewBox="0 0 50 50" version="1.1" xmlns="http://www.w3.org/2000/svg" xmlns:xlink="http://www.w3.org/1999/xlink">
    <!-- Generator: Sketch 50.2 (55047) - http://www.bohemiancoding.com/sketch -->
    <title>booking-summary-icon</title>
    <desc>Created with Sketch.</desc>
    <defs></defs>
    <g id="Page-1" stroke="none" stroke-width="1" fill="none" fill-rule="evenodd">
        <g id="Quick-checkout---Bookings-Summary" transform="translate(-120.000000, -105.000000)" fill="#E21C21" fill-rule="nonzero">
            <g id="park-tickets-couple" transform="translate(120.000000, 105.000000)">
                <path d="M44.0448783,25.0151976 C43.8217546,26.1348024 42.8278398,26.9503546 41.6361562,27.0010132 C41.2609026,27.0162107 40.94143,27.289767 40.8703854,27.6595745 C40.7943205,28.029382 40.9819473,28.4042553 41.3217039,28.5612969 C42.4018256,29.0678825 43.0052738,30.2026342 42.7770791,31.3221884 L42.5640974,32.3860182 C42.2851927,33.7892604 40.7334178,34.6656535 39.3744422,34.331307 C38.9941176,34.2401216 38.6036511,34.1691996 38.2182556,34.0932118 C37.6503043,33.9817629 37.0823529,33.8652482 36.5144016,33.7537994 C35.7638438,33.6018237 35.0133367,33.4549645 34.2628803,33.3029889 C33.3703854,33.1256839 32.4728195,32.9432624 31.5803245,32.7659574 C30.5813895,32.5633232 29.5824037,32.3658055 28.5833671,32.1631712 C27.5184584,31.9504053 26.4484787,31.7376393 25.38357,31.5198075 C24.2881846,31.3019757 23.1929006,31.079078 22.1026369,30.8612462 C21.0174442,30.6434144 19.9373225,30.4255319 18.8520791,30.2077508 C17.8176471,30.0000507 16.7831136,29.7923506 15.7486815,29.5846505 C14.8004057,29.3972138 13.8572008,29.2047112 12.9089249,29.0172746 C12.0874239,28.8551672 11.2659229,28.6879939 10.4494929,28.5258865 C9.79533469,28.3941743 9.14117647,28.2625127 8.48194726,28.1307497 C8.0306288,28.0395643 7.57925963,27.9483789 7.12799189,27.8572442 C6.92003043,27.8166667 6.71217039,27.7711246 6.50425963,27.7305978 C6.49411765,27.7305978 6.48397566,27.7254813 6.47378296,27.7254813 C6.58534483,28.2523303 6.53463489,28.8146403 6.29122718,29.3414894 C5.77900609,30.445846 4.58732252,31.0233536 3.4413286,30.8004559 C3.10157201,30.7345998 2.73138945,30.8612462 2.58433063,31.1753293 L2.12794118,32.1631712 C1.98093306,32.4772036 2.12794118,32.8419453 2.39675456,33.0597771 C2.4474645,33.1003546 38.9991886,49.9341945 39.0599899,49.9493414 C39.3997465,50.0151976 39.769929,49.8885512 39.9169878,49.5744681 L40.3733773,48.5866261 C40.5204361,48.2725937 40.3733773,47.9078521 40.1046146,47.6900203 C39.1918357,46.9655522 38.8570994,45.6838906 39.3693205,44.5795846 C39.8814909,43.475228 41.0731744,42.8977204 42.2192191,43.120618 C42.5589249,43.1864742 42.9291582,43.0598278 43.0761663,42.7457447 L43.5325558,41.7579027 C43.6796146,41.4438197 43.5325558,41.0791287 43.2637931,40.8612462 C42.3510142,40.1368288 42.0163286,38.8551672 42.528499,37.7508612 C43.0406694,36.6465552 44.2323529,36.068997 45.3783976,36.2918946 C45.7181542,36.3577508 46.0883367,36.2311044 46.2353955,35.9170213 L46.691785,34.9291793 C46.8387931,34.6150963 46.691785,34.2503546 46.4229716,34.0325228 C45.5101927,33.3081054 45.1755071,32.0264438 45.6876775,30.9220871 C46.1998986,29.8177305 47.3915822,29.2402736 48.5375761,29.4631206 C48.8773327,29.5289767 49.2475152,29.4023303 49.394574,29.0882979 L49.8965517,27.9940223 C50.0436105,27.6799392 49.9066937,27.3101317 49.5922921,27.1632725 L44.1308824,24.645542 L44.0448783,25.0151976 Z" id="Shape"></path>
                <path d="M0.490111562,24.6656535 C0.550963489,24.6960486 40.0083671,32.6037994 40.0742901,32.6037994 C40.4191684,32.5886018 40.7538032,32.3758359 40.8197262,32.0414894 L41.0327079,30.9776596 C41.0986308,30.6382472 40.8755071,30.3140324 40.5611055,30.1671226 C39.5063387,29.6706687 38.8825558,28.5055218 39.1209432,27.3099797 C39.3592799,26.1144377 40.3886917,25.2785714 41.5550203,25.2279129 C41.8998479,25.2127153 42.2345335,24.9999493 42.3004564,24.6656028 L42.4576572,23.885461 L42.5134888,23.5967072 C42.5794118,23.2572948 42.3562373,22.93308 42.0418864,22.7861702 C40.987069,22.2897163 40.3633367,21.1245694 40.6017241,19.929078 C40.8400609,18.7334853 41.8694726,17.897619 43.0358012,17.8469605 C43.3806288,17.8317629 43.7153144,17.618997 43.7812373,17.2846505 L43.9942191,16.2208207 C44.060142,15.8814083 43.8369675,15.5571935 43.5225659,15.4102837 C42.4677992,14.9138298 41.8440669,13.7486829 42.0824544,12.5531408 C42.3207911,11.3575988 43.3502028,10.5217325 44.5165314,10.471074 C44.861359,10.4558764 45.1959939,10.2431104 45.2619675,9.90876393 L45.5002535,8.72841945 C45.5662272,8.38900709 45.3481237,8.05972644 45.0084178,7.99387031 C45.0084178,7.99387031 5.35831643,0.0506079027 5.31774848,0.0506079027 C5.02363083,0.0506079027 4.76501014,0.258308004 4.70415822,0.55212766 L4.4658215,1.73247214 C4.39989858,2.0718845 4.62302231,2.39609929 4.93742394,2.54300912 C5.99219067,3.03946302 6.61592292,4.20460993 6.37758621,5.40015198 C6.13924949,6.59569402 5.10983773,7.43156028 3.94350913,7.48221884 C3.59863083,7.49741641 3.26399594,7.71018237 3.19807302,8.04452888 L2.98509128,9.10835866 C2.91916836,9.44777102 3.14229209,9.77198582 3.45669371,9.91889564 C4.51146045,10.4153495 5.13524341,11.5804965 4.89685598,12.7760385 C4.65851927,13.9715805 3.62910751,14.8074468 2.4627789,14.8581054 C2.11795132,14.8733029 1.78326572,15.0860689 1.7173428,15.4204154 L1.50436105,16.4842452 C1.43843813,16.8236575 1.66161258,17.1478723 1.97596349,17.2947822 C3.03078093,17.7912361 3.65451318,18.956383 3.41612576,20.151925 C3.17778905,21.3475177 2.14837728,22.183384 0.982048682,22.2340426 C0.637221095,22.2492401 0.302535497,22.4620061 0.236612576,22.7963526 L0.0236308316,23.8601824 C-0.0474137931,24.1995947 0.175659229,24.5187437 0.490111562,24.6656535 Z M34.288286,11.6818642 C34.4252028,10.9979737 35.094574,10.5521783 35.7791582,10.6889564 C36.4637424,10.8257345 36.9099899,11.4944276 36.773073,12.1783181 L35.099645,20.4964539 L34.0702333,25.6231003 C33.9485294,26.2259372 33.421146,26.641388 32.8278398,26.641388 C32.7466531,26.641388 32.660497,26.6312563 32.5793611,26.6160588 C31.8947769,26.4792806 31.4485294,25.8105876 31.5854462,25.1266971 L32.7365619,19.4073455 L34.288286,11.6818642 Z M11.4282454,7.09726444 C11.5651623,6.41337386 12.2345335,5.96757852 12.9191176,6.10435664 C13.6037018,6.24113475 14.0499493,6.90982776 13.9130325,7.59371834 L13.3349391,10.4660588 L12.6808316,13.7234043 L12.1534483,16.3475177 L11.2153144,21.0385005 C11.0936613,21.6413374 10.5662272,22.0567882 9.97292089,22.0567882 C9.89178499,22.0567882 9.80557809,22.0466565 9.7244929,22.031459 C9.68899594,22.0263425 9.65349899,22.0162107 9.62307302,22.0061297 C8.99426978,21.8237082 8.60375254,21.1904762 8.73564909,20.5420973 L8.92322515,19.5947822 L9.41511156,17.1429078 L11.4282454,7.09726444 Z" id="Shape"></path>
            </g>
        </g>
    </g>
</svg>