<?xml version="1.0" encoding="UTF-8"?>
<svg width="50px" height="50px" viewBox="0 0 50 50" version="1.1" xmlns="http://www.w3.org/2000/svg" xmlns:xlink="http://www.w3.org/1999/xlink">
    <!-- Generator: Sketch 50.2 (55047) - http://www.bohemiancoding.com/sketch -->
    <title>buy-voucher-icon</title>
    <desc>Created with Sketch.</desc>
    <defs></defs>
    <g id="Page-1" stroke="none" stroke-width="1" fill="none" fill-rule="evenodd">
        <g id="Home" transform="translate(-120.000000, -1738.000000)" fill="#E21C21" fill-rule="nonzero">
            <g id="coupon" transform="translate(120.000000, 1738.000000)">
                <ellipse id="Oval" cx="35.9375" cy="31.1818182" rx="1.5625" ry="1.54545455"></ellipse>
                <ellipse id="Oval" cx="26.5625" cy="18.8181818" rx="1.5625" ry="1.54545455"></ellipse>
                <path d="M46.875,8 L17.1875,8 C16.771875,8 16.375,8.16381818 16.08125,8.45127273 L14.0625,10.4510909 L12.04375,8.45127273 C11.75,8.16381818 11.353125,8 10.9375,8 L3.125,8 C1.403125,8 0,9.38781818 0,11.0909091 L0,38.9090909 C0,40.6152727 1.403125,42 3.125,42 L10.9375,42 C11.353125,42 11.75,41.8361818 12.04375,41.5487273 L14.0625,39.5489091 L16.08125,41.5456364 C16.375,41.8361818 16.771875,42 17.1875,42 L46.875,42 C48.6,42 50,40.6152727 50,38.9090909 L50,11.0909091 C50,9.38781818 48.6,8 46.875,8 Z M15.625,35.8181818 L12.5,35.8181818 L12.5,32.7272727 L15.625,32.7272727 L15.625,35.8181818 Z M15.625,29.6363636 L12.5,29.6363636 L12.5,26.5454545 L15.625,26.5454545 L15.625,29.6363636 Z M15.625,23.4545455 L12.5,23.4545455 L12.5,20.3636364 L15.625,20.3636364 L15.625,23.4545455 Z M15.625,17.2727273 L12.5,17.2727273 L12.5,14.1818182 L15.625,14.1818182 L15.625,17.2727273 Z M26.5625,14.1818182 C29.146875,14.1818182 31.25,16.262 31.25,18.8181818 C31.25,21.3743636 29.146875,23.4545455 26.5625,23.4545455 C23.978125,23.4545455 21.875,21.3743636 21.875,18.8181818 C21.875,16.262 23.978125,14.1818182 26.5625,14.1818182 Z M23.4375,35.8181818 C23.084375,35.8181818 22.73125,35.7007273 22.4375,35.4596364 C21.775,34.9125455 21.684375,33.9389091 22.2375,33.2836364 L37.8625,14.7381818 C38.41875,14.0798182 39.403125,13.9994545 40.0625,14.5403636 C40.725,15.0874545 40.8125,16.0610909 40.259375,16.7194545 L24.634375,35.2649091 C24.328125,35.6265455 23.884375,35.8181818 23.4375,35.8181818 Z M35.9375,35.8181818 C33.353125,35.8181818 31.25,33.738 31.25,31.1818182 C31.25,28.6256364 33.353125,26.5454545 35.9375,26.5454545 C38.521875,26.5454545 40.625,28.6256364 40.625,31.1818182 C40.625,33.738 38.521875,35.8181818 35.9375,35.8181818 Z" id="Shape"></path>
            </g>
        </g>
    </g>
</svg>